<svg width="17" height="10" viewBox="0 0 17 10" fill="none" xmlns="http://www.w3.org/2000/svg">
<path d="M2.892 9.18C2.044 9.18 1.428 9.024 1.044 8.712C0.660002 8.4 0.468002 7.904 0.468002 7.224C0.468002 6.552 0.656002 6.068 1.032 5.772C1.416 5.476 2.044 5.328 2.916 5.328C3.092 5.328 3.268 5.336 3.444 5.352C3.62 5.36 3.76 5.372 3.864 5.388V4.908C3.864 4.508 3.792 4.228 3.648 4.068C3.504 3.908 3.252 3.828 2.892 3.828C2.388 3.828 2.036 4.028 1.836 4.428C1.756 4.58 1.66 4.656 1.548 4.656C1.492 4.656 1.424 4.636 1.344 4.596L0.912002 4.392C0.744002 4.32 0.660002 4.224 0.660002 4.104C0.660002 4.032 0.680002 3.956 0.720002 3.876C1.128 3.028 1.852 2.604 2.892 2.604C3.74 2.604 4.344 2.804 4.704 3.204C5.064 3.604 5.244 4.192 5.244 4.968V8.184C5.244 8.392 5.216 8.54 5.16 8.628C5.112 8.716 5.012 8.796 4.86 8.868C4.42 9.076 3.764 9.18 2.892 9.18ZM1.848 7.224C1.848 7.504 1.924 7.708 2.076 7.836C2.236 7.964 2.48 8.028 2.808 8.028C3.224 8.028 3.544 7.996 3.768 7.932C3.808 7.916 3.832 7.9 3.84 7.884C3.856 7.86 3.864 7.82 3.864 7.764V6.468C3.8 6.468 3.652 6.46 3.42 6.444C3.196 6.428 3 6.42 2.832 6.42C2.496 6.42 2.248 6.488 2.088 6.624C1.928 6.752 1.848 6.952 1.848 7.224Z" fill="black"/>
<path d="M7.69369 9.18C7.05369 9.18 6.53769 9.064 6.14569 8.832C5.75369 8.6 5.46969 8.236 5.29369 7.74C5.26169 7.644 5.24569 7.576 5.24569 7.536C5.24569 7.392 5.32969 7.296 5.49769 7.248L6.15769 7.056C6.22969 7.032 6.29369 7.02 6.34969 7.02C6.40569 7.02 6.45369 7.04 6.49369 7.08C6.53369 7.12 6.57369 7.188 6.61369 7.284C6.69369 7.516 6.82169 7.684 6.99769 7.788C7.18169 7.892 7.41369 7.944 7.69369 7.944C8.38169 7.944 8.72569 7.708 8.72569 7.236C8.72569 6.972 8.63769 6.788 8.46169 6.684C8.29369 6.572 7.98969 6.492 7.54969 6.444C7.10169 6.396 6.71769 6.316 6.39769 6.204C6.08569 6.092 5.82969 5.9 5.62969 5.628C5.43769 5.356 5.34169 4.984 5.34169 4.512C5.34169 3.936 5.54569 3.476 5.95369 3.132C6.36969 2.788 6.94169 2.616 7.66969 2.616C8.27769 2.616 8.76169 2.724 9.12169 2.94C9.48169 3.156 9.75369 3.472 9.93769 3.888C9.97769 3.992 9.99769 4.076 9.99769 4.14C9.99769 4.276 9.91769 4.372 9.75769 4.428L9.21769 4.632C9.12969 4.664 9.05769 4.68 9.00169 4.68C8.94569 4.68 8.89769 4.664 8.85769 4.632C8.82569 4.6 8.78969 4.54 8.74969 4.452C8.66169 4.26 8.52969 4.112 8.35369 4.008C8.18569 3.896 7.95769 3.84 7.66969 3.84C7.35769 3.84 7.12169 3.9 6.96169 4.02C6.80169 4.14 6.72169 4.304 6.72169 4.512C6.72169 4.784 6.80569 4.968 6.97369 5.064C7.14169 5.16 7.44169 5.232 7.87369 5.28C8.59369 5.352 9.14569 5.532 9.52969 5.82C9.91369 6.108 10.1057 6.572 10.1057 7.212C10.1057 7.812 9.89769 8.292 9.48169 8.652C9.06569 9.004 8.46969 9.18 7.69369 9.18Z" fill="black"/>
<path d="M10.5433 9C10.4153 9 10.3273 8.972 10.2793 8.916C10.2313 8.86 10.2073 8.76 10.2073 8.616V0.504003C10.2073 0.360003 10.2313 0.260003 10.2793 0.204002C10.3273 0.148003 10.4153 0.120003 10.5433 0.120003H11.2513C11.3793 0.120003 11.4673 0.148003 11.5153 0.204002C11.5713 0.260003 11.5993 0.360003 11.5993 0.504003V5.184H12.1633H12.2233L13.4593 3.06C13.5233 2.932 13.5913 2.856 13.6633 2.832C13.7433 2.8 13.8833 2.784 14.0833 2.784H14.6713C14.8953 2.784 15.0073 2.848 15.0073 2.976C15.0073 3.048 14.9793 3.128 14.9233 3.216L13.4833 5.46C13.6113 5.556 13.7233 5.684 13.8193 5.844C13.9153 5.996 14.0193 6.196 14.1313 6.444L15.0193 8.556C15.0673 8.66 15.0913 8.744 15.0913 8.808C15.0913 8.88 15.0633 8.932 15.0073 8.964C14.9593 8.988 14.8753 9 14.7553 9H14.1913C13.9913 9 13.8513 8.98 13.7713 8.94C13.6913 8.9 13.6233 8.808 13.5673 8.664L12.9313 7.068C12.8433 6.852 12.7513 6.7 12.6553 6.612C12.5593 6.524 12.4313 6.48 12.2713 6.48H11.5993V8.616C11.5993 8.76 11.5713 8.86 11.5153 8.916C11.4673 8.972 11.3793 9 11.2513 9H10.5433Z" fill="black"/>
<path d="M15.6324 9.096C15.3444 9.096 15.1444 9.04 15.0324 8.928C14.9204 8.816 14.8644 8.612 14.8644 8.316V8.208C14.8644 7.92 14.9164 7.72 15.0204 7.608C15.1324 7.496 15.3364 7.44 15.6324 7.44H15.7164C16.0124 7.44 16.2164 7.496 16.3284 7.608C16.4404 7.72 16.4964 7.92 16.4964 8.208V8.316C16.4964 8.612 16.4404 8.816 16.3284 8.928C16.2164 9.04 16.0124 9.096 15.7164 9.096H15.6324Z" fill="black"/>
</svg>
