<svg width="209" height="209" viewBox="0 0 269 269" fill="none" xmlns="http://www.w3.org/2000/svg">
<path d="M84.5338 258.849L89.614 251.788L91.0757 252.298L90.6517 258.835L94.4863 253.487L95.9406 253.982L95.4228 262.646L94.0518 262.168L94.6564 255.186L90.6525 260.983L89.2021 260.477L89.7836 253.525L85.9162 259.332L84.5338 258.849Z" fill="black"/>
<path d="M77.3326 254.39L78.3984 252.186L75.8057 250.932L76.2915 249.927L78.8843 251.181L79.9971 248.88L77.0803 247.469L77.5661 246.465L81.7145 248.471L78.0782 255.99L73.9299 253.984L74.4158 252.979L77.3326 254.39Z" fill="black"/>
<path d="M69.3535 243.208L66.9371 241.754L67.5062 240.808L71.0948 242.967L66.7954 250.114L65.6232 249.409L69.3535 243.208Z" fill="black"/>
<path d="M59.6798 240.73C59.1894 241.382 58.5993 241.854 57.9093 242.146C57.213 242.433 56.4977 242.526 55.7634 242.425C55.0179 242.324 54.335 242.041 53.7148 241.575C53.005 241.041 52.5074 240.392 52.2219 239.627C51.9251 238.863 51.8925 238.068 52.1238 237.241L53.4379 238.229C53.3461 238.711 53.3888 239.153 53.5659 239.556C53.7431 239.96 54.0331 240.313 54.4359 240.616C54.8771 240.947 55.3449 241.144 55.8392 241.205C56.3336 241.267 56.8192 241.187 57.2963 240.965C57.767 240.738 58.1874 240.379 58.5576 239.886C58.9277 239.394 59.1563 238.89 59.2433 238.375C59.3239 237.855 59.2685 237.363 59.077 236.899C58.8807 236.441 58.562 236.046 58.1208 235.714C57.7179 235.412 57.2982 235.231 56.8614 235.173C56.4247 235.115 55.9878 235.197 55.5507 235.419L54.2367 234.431C54.9668 233.979 55.7398 233.789 56.5557 233.862C57.3653 233.93 58.1249 234.231 58.8347 234.765C59.4613 235.236 59.9255 235.81 60.2271 236.487C60.5239 237.171 60.6311 237.887 60.5486 238.636C60.4597 239.38 60.1701 240.078 59.6798 240.73Z" fill="black"/>
<path d="M47.4369 225.115C47.9975 225.651 48.3902 226.276 48.6152 226.99C48.8288 227.704 48.8503 228.428 48.6796 229.161C48.4975 229.895 48.1244 230.557 47.5601 231.146C46.9959 231.736 46.3539 232.135 45.6342 232.343C44.9087 232.545 44.1874 232.553 43.4704 232.365C42.7421 232.177 42.0976 231.815 41.537 231.278C40.9707 230.736 40.5807 230.108 40.3671 229.394C40.1421 228.68 40.1179 227.959 40.2944 227.231C40.4709 226.503 40.8412 225.844 41.4055 225.255C41.9698 224.665 42.6145 224.264 43.3397 224.05C44.0594 223.842 44.7835 223.832 45.5118 224.019C46.2289 224.207 46.8706 224.573 47.4369 225.115ZM46.6154 225.973C46.2166 225.591 45.7755 225.341 45.2919 225.221C44.8028 225.107 44.3112 225.135 43.817 225.304C43.3114 225.474 42.8457 225.781 42.4197 226.226C41.9937 226.671 41.7099 227.147 41.5682 227.653C41.4207 228.154 41.4173 228.644 41.5578 229.122C41.6984 229.6 41.9681 230.029 42.3668 230.411C42.7656 230.793 43.2067 231.043 43.6903 231.163C44.1739 231.283 44.6656 231.261 45.1656 231.097C45.6599 230.928 46.12 230.621 46.5459 230.176C46.9719 229.731 47.2614 229.255 47.4144 228.748C47.5561 228.241 47.5594 227.746 47.4244 227.262C47.2838 226.784 47.0142 226.355 46.6154 225.973Z" fill="black"/>
<path d="M27.5802 215.659L34.0422 210.387L34.907 211.447L30.4813 215.058L36.5153 213.418L37.1146 214.152L34.3047 219.744L38.7305 216.133L39.5953 217.193L33.1333 222.465L32.2002 221.321L35.4165 214.918L28.5057 216.793L27.5802 215.659Z" fill="black"/>
<path d="M23.0718 207.309L25.1283 205.981L23.5659 203.562L24.5035 202.956L26.0658 205.376L28.213 203.989L26.4554 201.267L27.3929 200.662L29.8927 204.533L22.8764 209.064L20.3767 205.193L21.3142 204.587L23.0718 207.309Z" fill="black"/>
<path d="M9.87632 184.642L10.9012 184.2L11.7798 186.239L18.4139 183.38L18.9554 184.636L12.3213 187.495L13.2047 189.545L12.1798 189.987L9.87632 184.642Z" fill="black"/>
<path d="M14.151 171.54C14.3802 172.281 14.4198 173.018 14.2697 173.751C14.1096 174.479 13.7767 175.122 13.2711 175.681C12.7554 176.234 12.1078 176.631 11.3283 176.872C10.5487 177.113 9.79382 177.15 9.06366 176.982C8.33114 176.806 7.69719 176.462 7.16181 175.95C6.61642 175.432 6.2291 174.802 5.99984 174.061C5.76821 173.312 5.73245 172.573 5.89258 171.845C6.0427 171.112 6.37175 170.47 6.87974 169.92C7.38772 169.369 8.0315 168.973 8.81108 168.732C9.59065 168.491 10.3493 168.453 11.0871 168.619C11.8173 168.786 12.4551 169.129 13.0005 169.647C13.5358 170.16 13.9193 170.791 14.151 171.54ZM13.016 171.891C12.8529 171.363 12.5891 170.93 12.2245 170.591C11.8523 170.254 11.4091 170.039 10.8949 169.947C10.3707 169.849 9.81438 169.891 9.22588 170.073C8.63738 170.255 8.15812 170.533 7.7881 170.907C7.41572 171.274 7.17488 171.7 7.06559 172.186C6.95629 172.672 6.98318 173.179 7.14627 173.706C7.30935 174.233 7.57318 174.667 7.93774 175.006C8.3023 175.346 8.74286 175.565 9.25942 175.665C9.77361 175.757 10.325 175.712 10.9135 175.53C11.502 175.348 11.9862 175.073 12.3662 174.704C12.7363 174.33 12.9797 173.899 13.0967 173.411C13.206 172.925 13.1791 172.418 13.016 171.891Z" fill="black"/>
<path d="M0.33667 144.117L8.63011 143.237L8.77446 144.597L3.09435 145.2L9.0429 147.127L9.14293 148.07L3.73252 151.214L9.41263 150.612L9.55698 151.972L1.26354 152.852L1.1078 151.384L7.30233 147.783L0.491149 145.573L0.33667 144.117Z" fill="black"/>
<path d="M0.0636385 129.812L5.35396 132.621L8.37783 132.648L8.36521 134.016L5.34134 133.988L0 136.711L0.0140558 135.187L4.1237 133.293L0.0496933 131.324L0.0636385 129.812Z" fill="black"/>
<path d="M5.22465 107.412C5.64152 107.49 6.01654 107.661 6.3497 107.926C6.68287 108.192 6.92726 108.563 7.08289 109.039C7.23066 109.514 7.24173 110.09 7.11612 110.766L6.84005 112.253L10.1672 112.871L9.9174 114.216L1.71759 112.693L2.24342 109.861C2.36028 109.232 2.56899 108.722 2.86956 108.33C3.16372 107.929 3.51537 107.656 3.92448 107.513C4.33506 107.361 4.76845 107.328 5.22465 107.412ZM6.01888 110.562C6.11382 110.051 6.07061 109.648 5.88925 109.354C5.70003 109.059 5.39304 108.872 4.96831 108.793C4.07164 108.626 3.52909 109.05 3.34066 110.065L3.0646 111.552L5.74281 112.049L6.01888 110.562Z" fill="black"/>
<path d="M13.7812 97.9237C13.5559 98.6663 13.1758 99.2992 12.6408 99.8224C12.1005 100.336 11.4646 100.682 10.733 100.861C9.9961 101.031 9.23722 100.997 8.45637 100.76C7.67552 100.523 7.02964 100.13 6.51872 99.5825C6.01013 99.0269 5.67766 98.3868 5.52131 97.6622C5.35963 96.9276 5.39144 96.189 5.61675 95.4465C5.84438 94.6962 6.22834 94.0645 6.76863 93.5513C7.30359 93.0281 7.93569 92.6806 8.66495 92.5089C9.3942 92.3373 10.1493 92.3699 10.9301 92.6068C11.711 92.8438 12.3607 93.2374 12.8792 93.7876C13.3901 94.3356 13.7264 94.9768 13.8881 95.7114C14.0445 96.436 14.0088 97.1735 13.7812 97.9237ZM12.6444 97.5788C12.8047 97.0505 12.8288 96.5437 12.717 96.0583C12.5974 95.5706 12.3505 95.1446 11.9761 94.7802C11.5965 94.4058 11.1119 94.1292 10.5225 93.9504C9.933 93.7715 9.38025 93.7334 8.86424 93.836C8.35054 93.9309 7.91232 94.1491 7.54958 94.4905C7.18683 94.8319 6.92532 95.2667 6.76505 95.7949C6.60478 96.3231 6.58059 96.8299 6.69248 97.3153C6.80437 97.8007 7.04632 98.2294 7.41832 98.6015C7.79265 98.9658 8.27455 99.2375 8.86401 99.4163C9.45348 99.5952 10.0089 99.6383 10.5302 99.5457C11.0463 99.4431 11.4895 99.2222 11.8599 98.8832C12.2226 98.5418 12.4841 98.107 12.6444 97.5788Z" fill="black"/>
<path d="M19.0567 83.3815L15.2338 83.8296L14.8219 84.7889L17.8873 86.1051L17.3476 87.3621L9.6841 84.0717L10.8204 81.4253C11.0729 80.8373 11.3888 80.3853 11.7683 80.0693C12.1508 79.746 12.5575 79.5593 12.9882 79.5092C13.4221 79.4517 13.8522 79.5145 14.2786 79.6976C14.7784 79.9122 15.1711 80.2549 15.4565 80.7257C15.7377 81.186 15.8224 81.7491 15.7106 82.415L19.7006 81.8819L19.0567 83.3815ZM13.8185 84.3581L14.415 82.9688C14.617 82.4983 14.6509 82.0949 14.5167 81.7587C14.3856 81.4151 14.1216 81.1581 13.7246 80.9877C13.3277 80.8172 12.9684 80.8023 12.6469 80.9428C12.318 81.0802 12.051 81.3878 11.8458 81.8656L11.2493 83.255L13.8185 84.3581Z" fill="black"/>
<path d="M18.093 66.8533L19.0699 67.3928L17.9965 69.3361L24.32 72.8289L23.6586 74.0264L17.3351 70.5336L16.2559 72.4874L15.2791 71.9478L18.093 66.8533Z" fill="black"/>
<path d="M24.7362 56.5332L25.6575 57.1631L23.6593 60.0853L25.69 61.4738L27.2478 59.1955L28.1691 59.8255L26.6112 62.1038L29.6225 64.1629L28.8503 65.2921L21.9659 60.5846L24.7362 56.5332Z" fill="black"/>
<path d="M38.3648 52.7443C37.8609 53.3344 37.259 53.762 36.5593 54.0271C35.8586 54.2809 35.1372 54.3434 34.3951 54.2146C33.6521 54.0745 32.9703 53.7396 32.3498 53.2097C31.7292 52.6798 31.2946 52.0614 31.046 51.3547C30.8026 50.6419 30.7544 49.9222 30.9015 49.1956C31.0476 48.4578 31.3727 47.7938 31.8766 47.2037C32.3857 46.6075 32.9906 46.1825 33.6912 45.9287C34.391 45.6636 35.1094 45.5985 35.8463 45.7334C36.5833 45.8683 37.262 46.2007 37.8825 46.7306C38.5031 47.2605 38.9407 47.8814 39.1954 48.5933C39.444 49.3 39.4952 50.0223 39.3491 50.7602C39.202 51.4867 38.8739 52.1481 38.3648 52.7443ZM37.4614 51.9728C37.8199 51.5531 38.0451 51.0984 38.137 50.6088C38.2229 50.1141 38.1673 49.6248 37.9703 49.1409C37.7724 48.6458 37.4392 48.1983 36.9708 47.7982C36.5023 47.3982 36.0112 47.1419 35.4973 47.0291C34.9886 46.9103 34.4997 46.9347 34.0305 47.1021C33.5614 47.2696 33.1476 47.5632 32.7891 47.983C32.4307 48.4028 32.2055 48.8574 32.1135 49.347C32.0216 49.8366 32.0715 50.3263 32.2633 50.8162C32.4603 51.3 32.793 51.742 33.2615 52.142C33.7299 52.542 34.2215 52.804 34.7363 52.928C35.2502 53.0407 35.7448 53.016 36.22 52.8537C36.6891 52.6862 37.1029 52.3926 37.4614 51.9728Z" fill="black"/>
<path d="M46.1094 42.766L48.1516 40.8213L48.9129 41.6208L45.8801 44.5089L40.1286 38.4693L41.1193 37.5259L46.1094 42.766Z" fill="black"/>
<path d="M49.8372 29.8346L55.0924 36.3106L54.0302 37.1726L48.775 30.6966L49.8372 29.8346Z" fill="black"/>
<path d="M64.317 29.6287C63.6707 30.0582 62.9747 30.3046 62.2291 30.3679C61.4858 30.4201 60.7748 30.2826 60.0963 29.9555C59.4201 29.6173 58.8561 29.1083 58.4044 28.4287C57.9528 27.7492 57.7042 27.0355 57.6586 26.2877C57.6198 25.5354 57.7706 24.8301 58.111 24.1716C58.4536 23.502 58.9481 22.9524 59.5944 22.5229C60.2473 22.0889 60.9455 21.8458 61.6888 21.7936C62.4344 21.7304 63.1432 21.8645 63.815 22.1961C64.4868 22.5276 65.0486 23.0332 65.5002 23.7128C65.9519 24.3924 66.2027 25.1094 66.2527 25.8639C66.2982 26.6117 66.1496 27.3204 65.807 27.99C65.4666 28.6485 64.9699 29.1947 64.317 29.6287ZM63.6594 28.6392C64.1191 28.3337 64.4602 27.9581 64.6827 27.5124C64.9008 27.0601 64.9814 26.5743 64.9244 26.055C64.8697 25.5247 64.6719 25.003 64.3309 24.4899C63.99 23.9769 63.5878 23.5958 63.1244 23.3466C62.6677 23.093 62.1908 22.9825 61.6938 23.0151C61.1967 23.0477 60.7183 23.2167 60.2586 23.5223C59.7989 23.8278 59.4577 24.2034 59.2352 24.6491C59.0127 25.0948 58.9266 25.5794 58.9769 26.1031C59.0338 26.6224 59.2328 27.1386 59.5738 27.6516C59.9147 28.1646 60.3158 28.5513 60.7769 28.8115C61.2403 29.0607 61.7227 29.1723 62.2242 29.1464C62.7213 29.1138 63.1997 28.9448 63.6594 28.6392Z" fill="black"/>
<path d="M85.7922 18.0257L82.7148 15.7138L81.755 16.1245L83.0671 19.1916L81.8094 19.7297L78.5289 12.062L81.1768 10.9291C81.7652 10.6774 82.3057 10.568 82.7984 10.6008C83.2984 10.6306 83.7216 10.7758 84.0681 11.0365C84.4219 11.2941 84.6901 11.6362 84.8726 12.0628C85.0866 12.5629 85.1346 13.0819 85.0166 13.6196C84.9028 14.1469 84.5758 14.6131 84.0357 15.0182L87.2927 17.3838L85.7922 18.0257ZM81.3254 15.1205L82.7155 14.5258C83.1863 14.3244 83.489 14.0557 83.6236 13.7196C83.7657 13.3804 83.7517 13.0122 83.5818 12.615C83.4119 12.2179 83.162 11.9593 82.8323 11.8393C82.4993 11.712 82.0938 11.7506 81.6158 11.9552L80.2256 12.5499L81.3254 15.1205Z" fill="black"/>
<path d="M92.9902 7.65275L93.7257 9.98764L96.4726 9.1223L96.8079 10.1867L94.061 11.0521L94.829 13.49L97.9193 12.5165L98.2546 13.5809L93.8595 14.9654L91.35 6.99936L95.7451 5.61481L96.0804 6.67924L92.9902 7.65275Z" fill="black"/>
<path d="M112.064 10.2809L110.724 10.5555L105.441 5.28061L106.691 11.3818L105.351 11.6565L103.675 3.47449L105.015 3.19985L110.295 8.46298L109.047 2.37353L110.387 2.09889L112.064 10.2809Z" fill="black"/>
<path d="M121.045 0.669943C121.929 0.589107 122.718 0.689753 123.41 0.97188C124.11 1.24531 124.669 1.68431 125.085 2.28888C125.509 2.88476 125.76 3.60494 125.837 4.44942C125.914 5.2939 125.798 6.04359 125.488 6.6985C125.187 7.35268 124.717 7.87766 124.078 8.27344C123.447 8.66052 122.689 8.89448 121.804 8.97532L119.092 9.22329L118.332 0.917914L121.045 0.669943ZM121.703 7.86395C122.675 7.7751 123.396 7.44411 123.865 6.87096C124.335 6.29782 124.526 5.53324 124.439 4.57723C124.351 3.61324 124.023 2.88405 123.456 2.38965C122.888 1.89524 122.119 1.69246 121.147 1.78131L119.796 1.90475L120.352 7.98739L121.703 7.86395Z" fill="black"/>
<path d="M134.474 1.13219L134.445 3.58001L137.324 3.61426L137.311 4.73018L134.431 4.69593L134.401 7.25175L137.641 7.29028L137.627 8.4062L133.02 8.35141L133.119 0L137.727 0.0547885L137.713 1.17071L134.474 1.13219Z" fill="black"/>
<path d="M149.276 9.28344L147.737 5.75533L146.699 5.63971L146.33 8.95519L144.97 8.80369L145.894 0.514987L148.756 0.833938C149.392 0.904817 149.917 1.07593 150.329 1.34728C150.75 1.61952 151.046 1.95444 151.219 2.35205C151.4 2.75054 151.465 3.18036 151.414 3.64151C151.353 4.18216 151.14 4.65739 150.772 5.0672C150.413 5.46994 149.899 5.71449 149.229 5.80086L150.898 9.46418L149.276 9.28344ZM146.82 4.55443L148.323 4.72187C148.832 4.77858 149.228 4.69389 149.511 4.46782C149.801 4.24263 149.971 3.91536 150.018 3.48602C150.066 3.05668 149.976 2.70857 149.748 2.44169C149.521 2.16687 149.15 2.00066 148.633 1.94307L147.13 1.77562L146.82 4.55443Z" fill="black"/>
<path d="M160.787 2.71061L159.145 10.8874L157.804 10.6181L159.446 2.44129L160.787 2.71061Z" fill="black"/>
<path d="M171.858 12.3745L168.511 11.3783L167.45 12.8402L166.081 12.4328L171.328 5.28046L172.846 5.73239L173.327 14.5897L171.947 14.1789L171.858 12.3745ZM171.808 11.1954L171.615 7.0936L169.198 10.4182L171.808 11.1954Z" fill="black"/>
<path d="M194.27 14.2755C195.061 14.6789 195.674 15.1847 196.109 15.7929C196.555 16.3975 196.793 17.0667 196.823 17.8004C196.864 18.5306 196.692 19.2734 196.306 20.0288C195.921 20.7842 195.423 21.3563 194.811 21.7449C194.207 22.1372 193.529 22.3304 192.778 22.3244C192.038 22.3149 191.272 22.1084 190.481 21.7049L188.054 20.4673L191.843 13.0378L194.27 14.2755ZM190.988 20.7108C191.857 21.1542 192.644 21.2589 193.347 21.0248C194.05 20.7907 194.619 20.2461 195.056 19.3909C195.495 18.5286 195.607 17.737 195.391 17.0161C195.175 16.2952 194.632 15.7131 193.763 15.2696L192.555 14.6535L189.78 20.0947L190.988 20.7108Z" fill="black"/>
<path d="M205.381 21.8313L204.05 23.8861L206.467 25.4516L205.861 26.3883L203.443 24.8228L202.054 26.9682L204.774 28.7294L204.167 29.6661L200.299 27.1613L204.839 20.151L208.707 22.6558L208.1 23.5925L205.381 21.8313Z" fill="black"/>
<path d="M212.26 35.7004C211.823 35.351 211.489 34.9615 211.259 34.532C211.033 34.0962 210.933 33.6577 210.957 33.2167C210.982 32.7756 211.144 32.3675 211.444 31.9924L212.588 32.9059C212.388 33.2072 212.313 33.5258 212.362 33.8619C212.417 34.2029 212.623 34.5157 212.979 34.8002C213.348 35.0947 213.706 35.2368 214.052 35.2264C214.403 35.2099 214.691 35.0609 214.915 34.7796C215.09 34.5608 215.166 34.3302 215.145 34.0878C215.13 33.8504 215.055 33.6169 214.921 33.3871C214.794 33.1624 214.596 32.8714 214.328 32.5144C213.993 32.0624 213.736 31.6729 213.557 31.3457C213.389 31.0173 213.309 30.6563 213.316 30.2627C213.323 29.8691 213.489 29.4692 213.813 29.0628C214.113 28.6877 214.469 28.4344 214.881 28.3028C215.293 28.1712 215.728 28.1651 216.185 28.2846C216.643 28.4041 217.093 28.6411 217.537 28.9955C218.168 29.4996 218.557 30.0709 218.702 30.7092C218.859 31.3462 218.74 31.9573 218.344 32.5424L217.163 31.599C217.334 31.3464 217.383 31.0534 217.312 30.7199C217.24 30.3863 217.036 30.0848 216.698 29.8153C216.392 29.5707 216.079 29.4492 215.761 29.4507C215.442 29.4523 215.166 29.6 214.931 29.8938C214.771 30.0939 214.698 30.307 214.712 30.5331C214.738 30.758 214.814 30.9828 214.942 31.2075C215.069 31.4323 215.261 31.7182 215.516 32.0653C215.853 32.5285 216.108 32.9268 216.282 33.2602C216.462 33.5987 216.546 33.9678 216.534 34.3676C216.533 34.7661 216.368 35.1717 216.038 35.5844C215.774 35.9157 215.434 36.1559 215.018 36.305C214.608 36.4591 214.159 36.4895 213.67 36.3962C213.193 36.3017 212.723 36.0698 212.26 35.7004Z" fill="black"/>
<path d="M226.793 37.206L221.042 43.2455L220.051 42.3021L225.803 36.2625L226.793 37.206Z" fill="black"/>
<path d="M234.861 49.2784C235.033 48.8426 235.072 48.4115 234.978 47.9852C234.889 47.5536 234.68 47.1474 234.349 46.7668C233.988 46.3499 233.571 46.0595 233.101 45.8958C232.631 45.732 232.142 45.7059 231.635 45.8175C231.133 45.9351 230.656 46.1905 230.203 46.5837C229.749 46.977 229.426 47.4163 229.233 47.9016C229.051 48.3878 229.008 48.8753 229.104 49.3641C229.2 49.853 229.429 50.3058 229.79 50.7227C230.278 51.2847 230.831 51.6045 231.449 51.6824C232.068 51.7602 232.68 51.605 233.286 51.2169L231.233 48.8514L232.058 48.1357L235.07 51.607L234.263 52.3069C233.716 52.6652 233.114 52.8806 232.457 52.9531C231.805 53.0317 231.158 52.9519 230.517 52.7137C229.887 52.4763 229.334 52.0827 228.857 51.5328C228.343 50.9407 228.01 50.2819 227.857 49.5565C227.71 48.8259 227.756 48.1033 227.993 47.3885C228.236 46.6799 228.666 46.0581 229.282 45.5233C229.899 44.9885 230.575 44.6507 231.311 44.51C232.052 44.3754 232.771 44.4348 233.467 44.6883C234.175 44.9425 234.783 45.3627 235.292 45.9488C235.874 46.6195 236.224 47.3589 236.343 48.1669C236.473 48.9757 236.338 49.7601 235.938 50.5201L234.861 49.2784Z" fill="black"/>
<path d="M239.766 65.8303L238.994 64.7011L241.812 57.7881L236.671 61.3035L235.899 60.1742L242.793 55.4599L243.565 56.5892L240.757 63.4954L245.889 59.9868L246.661 61.116L239.766 65.8303Z" fill="black"/>
<path d="M251.217 83.7577L249.801 80.5656L248 80.708L247.421 79.4026L256.267 78.7478L256.909 80.1958L250.486 86.3134L249.902 84.9971L251.217 83.7577ZM252.081 82.9542L255.075 80.1432L250.977 80.4642L252.081 82.9542Z" fill="black"/>
<path d="M255 99.2883L254.588 97.9841L259.284 92.1808L253.346 94.0598L252.933 92.7556L260.896 90.2358L261.309 91.54L256.624 97.3396L262.551 95.4642L262.963 96.7685L255 99.2883Z" fill="black"/>
<path d="M265.495 107.22C265.667 108.091 265.649 108.886 265.441 109.604C265.242 110.328 264.863 110.929 264.305 111.407C263.757 111.89 263.067 112.215 262.235 112.379C261.403 112.544 260.645 112.507 259.962 112.267C259.28 112.035 258.708 111.622 258.248 111.028C257.798 110.44 257.486 109.711 257.313 108.84L256.784 106.168L264.965 104.548L265.495 107.22ZM258.408 108.623C258.598 109.581 259.002 110.263 259.621 110.671C260.24 111.078 261.02 111.189 261.962 111.002C262.912 110.814 263.603 110.412 264.035 109.796C264.468 109.181 264.589 108.394 264.4 107.437L264.136 106.106L258.145 107.293L258.408 108.623Z" fill="black"/>
<path d="M268.238 133.605L267.122 133.628L267.048 130.089L264.588 130.141L264.646 132.9L263.531 132.924L263.472 130.165L259.825 130.242L259.796 128.874L268.134 128.698L268.238 133.605Z" fill="black"/>
<path d="M259.401 145.152L262.877 143.498L262.958 142.457L259.632 142.197L259.739 140.833L268.053 141.483L267.829 144.354C267.779 144.992 267.625 145.522 267.368 145.943C267.11 146.372 266.785 146.68 266.393 146.866C266.001 147.06 265.573 147.139 265.111 147.103C264.568 147.06 264.086 146.862 263.664 146.508C263.25 146.163 262.989 145.657 262.88 144.99L259.274 146.779L259.401 145.152ZM264.047 142.542L263.929 144.049C263.889 144.56 263.987 144.952 264.222 145.228C264.457 145.511 264.789 145.669 265.22 145.703C265.651 145.736 265.996 145.635 266.255 145.398C266.522 145.163 266.676 144.785 266.716 144.267L266.834 142.76L264.047 142.542Z" fill="black"/>
<path d="M257.614 157.442C257.76 156.679 258.071 156.01 258.548 155.433C259.031 154.866 259.627 154.454 260.336 154.199C261.051 153.953 261.809 153.906 262.61 154.06C263.412 154.213 264.095 154.535 264.661 155.026C265.226 155.525 265.624 156.126 265.856 156.831C266.094 157.544 266.14 158.282 265.994 159.044C265.847 159.814 265.532 160.483 265.049 161.05C264.572 161.627 263.98 162.039 263.273 162.287C262.566 162.534 261.812 162.581 261.01 162.428C260.209 162.275 259.521 161.952 258.947 161.459C258.381 160.968 257.979 160.366 257.741 159.653C257.509 158.949 257.467 158.212 257.614 157.442ZM258.781 157.665C258.677 158.207 258.707 158.713 258.869 159.184C259.04 159.657 259.33 160.054 259.741 160.377C260.158 160.709 260.669 160.933 261.274 161.049C261.879 161.165 262.432 161.144 262.935 160.988C263.436 160.839 263.848 160.576 264.173 160.199C264.498 159.821 264.712 159.361 264.816 158.819C264.919 158.276 264.89 157.77 264.728 157.299C264.565 156.828 264.279 156.427 263.87 156.097C263.459 155.774 262.952 155.554 262.347 155.439C261.742 155.323 261.185 155.339 260.676 155.486C260.174 155.642 259.756 155.909 259.424 156.285C259.099 156.663 258.885 157.122 258.781 157.665Z" fill="black"/>
<path d="M253.144 174.861L253.554 173.555L260.728 171.492L254.785 169.628L255.195 168.323L263.164 170.822L262.755 172.127L255.592 174.195L261.523 176.055L261.114 177.36L253.144 174.861Z" fill="black"/>
<path d="M256.165 189.763L255.141 189.321L256.019 187.282L249.385 184.423L249.927 183.167L256.561 186.026L257.444 183.976L258.469 184.418L256.165 189.763Z" fill="black"/>
<path d="M246.514 205.239L244.457 203.911L242.895 206.33L241.957 205.725L243.52 203.306L241.372 201.919L239.615 204.641L238.677 204.035L241.177 200.164L248.193 204.695L245.693 208.566L244.756 207.961L246.514 205.239Z" fill="black"/>
<path d="M230.153 215.39L231.009 214.323L238.443 215.012L233.586 211.113L234.442 210.046L240.955 215.275L240.099 216.342L232.675 215.66L237.522 219.551L236.666 220.618L230.153 215.39Z" fill="black"/>
<path d="M229.373 228.521C228.744 229.147 228.072 229.573 227.359 229.798C226.646 230.034 225.936 230.052 225.229 229.853C224.523 229.665 223.87 229.27 223.272 228.67C222.673 228.069 222.284 227.417 222.105 226.716C221.919 226.019 221.946 225.315 222.185 224.603C222.424 223.902 222.858 223.238 223.487 222.612L225.417 220.689L231.303 226.598L229.373 228.521ZM224.275 223.402C223.583 224.091 223.24 224.806 223.244 225.547C223.248 226.288 223.589 226.999 224.266 227.679C224.949 228.365 225.667 228.717 226.419 228.735C227.172 228.754 227.894 228.419 228.585 227.73L229.546 226.773L225.236 222.445L224.275 223.402Z" fill="black"/>
<path d="M210.68 244.226C209.948 244.728 209.211 245.025 208.468 245.116C207.724 245.219 207.023 245.109 206.364 244.785C205.703 244.471 205.133 243.965 204.653 243.266C204.173 242.566 203.909 241.855 203.86 241.133C203.804 240.414 203.958 239.727 204.322 239.07C204.684 238.424 205.231 237.849 205.964 237.347L208.21 235.807L212.927 242.685L210.68 244.226ZM206.595 238.268C205.79 238.82 205.322 239.46 205.192 240.19C205.062 240.919 205.268 241.68 205.811 242.472C206.358 243.27 207 243.747 207.737 243.901C208.473 244.056 209.244 243.857 210.049 243.305L211.167 242.538L207.713 237.501L206.595 238.268Z" fill="black"/>
<path d="M198.734 250.376L197.565 248.226L195.035 249.602L194.502 248.621L197.032 247.245L195.811 245L192.964 246.548L192.431 245.567L196.48 243.366L200.469 250.703L196.421 252.905L195.888 251.924L198.734 250.376Z" fill="black"/>
<path d="M182.409 259.28L182.091 250.377L183.553 249.767L189.664 256.255L188.313 256.819L183.362 251.368L183.739 258.725L182.409 259.28Z" fill="black"/>
<path d="M141.5 257L142.959 261.491H147.682L143.861 264.267L145.321 268.759L141.5 265.983L137.679 268.759L139.139 264.267L135.318 261.491H140.041L141.5 257Z" fill="black"/>
</svg>
